<?xml version="1.0" standalone="no"?><!DOCTYPE svg PUBLIC "-//W3C//DTD SVG 1.1//EN" "http://www.w3.org/Graphics/SVG/1.1/DTD/svg11.dtd"><svg t="1677341464441" class="icon" viewBox="0 0 1024 1024" version="1.1" xmlns="http://www.w3.org/2000/svg" p-id="1342" data-spm-anchor-id="a313x.7781069.0.i7" xmlns:xlink="http://www.w3.org/1999/xlink" width="200" height="200"><path d="M512 71.111111c243.484444 0 440.888889 197.404444 440.888889 440.888889 0 243.484444-197.404444 440.888889-440.888889 440.888889C268.515556 952.888889 71.111111 755.484444 71.111111 512 71.111111 268.515556 268.515556 71.111111 512 71.111111z m0 28.444445C284.216889 99.555556 99.555556 284.216889 99.555556 512s184.661333 412.444444 412.444444 412.444444 412.444444-184.661333 412.444444-412.444444S739.783111 99.555556 512 99.555556z" fill="#1296db" p-id="1343" data-spm-anchor-id="a313x.7781069.0.i8" class="selected"></path><path d="M170.666667 867.555556l267.093333-412.088889L867.555556 170.666667 589.809778 592.554667z" fill="#7E99FF" p-id="1344"></path><path d="M600.078222 602.823111L917.674667 120.391111l-490.24 324.849778L121.984 916.494222l478.08-313.671111z m217.344-381.880889L579.527111 582.272 219.335111 818.602667l228.736-352.924445 369.351111-244.736z" fill="#cdcdcd" p-id="1345" data-spm-anchor-id="a313x.7781069.0.i9" class=""></path><path d="M526.222222 455.111111a56.888889 56.888889 0 1 1 0 113.777778 56.888889 56.888889 0 0 1 0-113.777778z m0 28.444445a28.444444 28.444444 0 1 0 0 56.888888 28.444444 28.444444 0 0 0 0-56.888888z" fill="#2F2F2F" p-id="1346"></path></svg>